<svg xmlns="http://www.w3.org/2000/svg" width="200" height="200" viewBox="0 0 486.757 486.776">
  <defs>
    <style>
      .cls-1 {
        fill: #e0edf8;
      }

      .cls-2 {
        fill: #177dc9;
      }
    </style>
  </defs>
  <g id="Group_270" data-name="Group 270" transform="translate(0)">
    <path id="Union_39" data-name="Union 39" class="cls-1" d="M0,0,173.838,243.331a20.263,20.263,0,0,1,.877-5.316c.553-1.258,1.048-2.63,1.734-3.887a7.114,7.114,0,0,0,.686-1.048L237.8,148.094,121.742,0ZM191.254,243.331,252.115,328.6,365.091,486.776H486.757L312.919,243.331Z" transform="translate(486.757 486.776) rotate(180)"/>
    <path id="Union_40" data-name="Union 40" class="cls-2" d="M365.091,0,249.143,162.329l-57.889,81H312.919L486.757,0ZM0,486.776H139.082l102.4-143.255L177.134,253.6a2.46,2.46,0,0,0-.686-.991,41.219,41.219,0,0,1-1.848-4.173,20.7,20.7,0,0,1-.762-4.726v-.381Z" transform="translate(486.757 486.776) rotate(180)"/>
  </g>
</svg>
